<?xml version="1.0" encoding="UTF-8" standalone="no"?>
<svg xmlns="http://www.w3.org/2000/svg" xmlns:xlink="http://www.w3.org/1999/xlink" style="isolation:isolate; --c:#fff" viewBox="0 0 1280 640" width="1280pt" height="640pt">
    <defs>
        <clipPath id="_clipPath_QCvvFPyzYg7sdx9HcexYQqy31ZdeMjZ9">
            <rect width="1280" height="640" />
        </clipPath>
    </defs>
    <g clip-path="url(#_clipPath_QCvvFPyzYg7sdx9HcexYQqy31ZdeMjZ9)">
        <g>
            <path d=" M 151.364 119.304 L 297.498 119.304 L 297.498 526.947 L 469.728 526.947" fill="none" vector-effect="non-scaling-stroke" stroke-width="16" stroke="var(--c)" stroke-linejoin="round" stroke-linecap="round" stroke-miterlimit="3" />
            <path d=" M 505.648 556.947 C 489.09 556.947 475.648 543.504 475.648 526.947 C 475.648 510.389 489.09 496.947 505.648 496.947 C 522.205 496.947 535.648 510.389 535.648 526.947 C 535.648 543.504 522.205 556.947 505.648 556.947 Z " fill="none" stroke="var(--c)" stroke-width="16" />
            <line x1="297.498" y1="337.201" x2="469.728" y2="337.201" vector-effect="non-scaling-stroke" stroke-width="16" stroke="var(--c)" stroke-linejoin="round" stroke-linecap="round" stroke-miterlimit="3" />
            <path d=" M 505.648 367.201 C 489.09 367.201 475.648 353.758 475.648 337.201 C 475.648 320.643 489.09 307.201 505.648 307.201 C 522.205 307.201 535.648 320.643 535.648 337.201 C 535.648 353.758 522.205 367.201 505.648 367.201 Z " fill="none" stroke="var(--c)" stroke-width="16" />
            <path d=" M 365.999 158.59 L 354.647 158.59 L 354.647 67.256 L 409.578 67.256 L 409.578 77.955 L 365.999 77.955 L 365.999 106.008 L 394.834 106.008 L 394.834 116.707 L 365.999 116.707 L 365.999 158.59 L 365.999 158.59 Z  M 436.847 77.759 L 436.847 77.759 L 436.847 77.759 Q 434.76 79.782 431.759 79.782 L 431.759 79.782 L 431.759 79.782 Q 428.758 79.782 426.736 77.694 L 426.736 77.694 L 426.736 77.694 Q 424.713 75.606 424.713 72.736 L 424.713 72.736 L 424.713 72.736 Q 424.713 69.735 426.801 67.582 L 426.801 67.582 L 426.801 67.582 Q 428.888 65.429 431.759 65.429 L 431.759 65.429 L 431.759 65.429 Q 434.76 65.429 436.847 67.582 L 436.847 67.582 L 436.847 67.582 Q 438.935 69.735 438.935 72.736 L 438.935 72.736 L 438.935 72.736 Q 438.935 75.737 436.847 77.759 Z  M 437.5 158.59 L 426.148 158.59 L 426.148 91.916 L 437.5 91.916 L 437.5 158.59 L 437.5 158.59 Z  M 471.163 158.59 L 459.811 158.59 L 459.811 69.735 L 471.163 64.385 L 471.163 158.59 L 471.163 158.59 Z  M 519.048 160.155 L 519.048 160.155 L 519.048 160.155 Q 505.478 160.155 497.454 150.435 L 497.454 150.435 L 497.454 150.435 Q 489.43 140.714 489.43 125.188 L 489.43 125.188 L 489.43 125.188 Q 489.43 108.878 497.519 99.614 L 497.519 99.614 L 497.519 99.614 Q 505.609 90.35 519.048 90.35 L 519.048 90.35 L 519.048 90.35 Q 531.052 90.35 538.815 98.375 L 538.815 98.375 L 538.815 98.375 Q 546.579 106.399 546.579 122.056 L 546.579 122.056 L 546.579 122.056 Q 546.579 125.71 546.187 129.624 L 546.187 129.624 L 501.042 129.624 L 501.042 129.624 Q 501.694 138.757 506.718 144.303 L 506.718 144.303 L 506.718 144.303 Q 511.741 149.848 519.309 149.848 L 519.309 149.848 L 519.309 149.848 Q 527.659 149.848 533.661 143.846 L 533.661 143.846 L 540.577 151.544 L 540.577 151.544 Q 531.965 160.155 519.048 160.155 Z  M 500.912 119.969 L 500.912 119.969 L 535.097 119.969 L 535.097 119.969 Q 534.966 109.661 530.204 105.029 L 530.204 105.029 L 530.204 105.029 Q 525.441 100.397 519.048 100.397 L 519.048 100.397 L 519.048 100.397 Q 511.35 100.397 506.392 105.29 L 506.392 105.29 L 506.392 105.29 Q 501.434 110.183 500.912 119.969 Z  M 632.302 67.256 L 632.302 158.59 L 621.342 158.59 L 580.242 93.351 L 580.242 93.351 Q 577.893 89.567 576.588 86.958 L 576.588 86.958 L 576.588 86.958 Q 576.849 90.872 576.849 93.351 L 576.849 93.351 L 576.849 158.59 L 565.498 158.59 L 565.498 67.256 L 576.98 67.256 L 617.427 132.233 L 617.427 132.233 Q 619.515 135.626 621.211 139.018 L 621.211 139.018 L 621.211 139.018 Q 620.95 134.321 620.95 132.364 L 620.95 132.364 L 620.95 67.256 L 632.302 67.256 L 632.302 67.256 Z  M 704.847 158.59 L 694.148 158.59 L 694.148 152.457 L 694.148 152.457 Q 685.928 160.155 675.229 160.155 L 675.229 160.155 L 675.229 160.155 Q 664.66 160.155 658.332 154.349 L 658.332 154.349 L 658.332 154.349 Q 652.004 148.543 652.004 137.713 L 652.004 137.713 L 652.004 137.713 Q 652.004 126.884 659.18 121.273 L 659.18 121.273 L 659.18 121.273 Q 666.356 115.663 676.925 115.663 L 676.925 115.663 L 676.925 115.663 Q 686.58 115.663 694.148 119.969 L 694.148 119.969 L 694.148 115.271 L 694.148 115.271 Q 694.148 106.921 690.429 103.594 L 690.429 103.594 L 690.429 103.594 Q 686.711 100.267 679.665 100.267 L 679.665 100.267 L 679.665 100.267 Q 669.618 100.267 660.224 106.921 L 660.224 106.921 L 656.962 97.396 L 656.962 97.396 Q 667.661 90.35 681.1 90.35 L 681.1 90.35 L 681.1 90.35 Q 704.847 90.35 704.847 114.358 L 704.847 114.358 L 704.847 158.59 L 704.847 158.59 Z  M 676.925 150.109 L 676.925 150.109 L 676.925 150.109 Q 686.711 150.109 694.148 141.367 L 694.148 141.367 L 694.148 129.885 L 694.148 129.885 Q 686.972 125.449 678.491 125.449 L 678.491 125.449 L 678.491 125.449 Q 671.575 125.449 667.139 128.58 L 667.139 128.58 L 667.139 128.58 Q 662.703 131.712 662.703 137.713 L 662.703 137.713 L 662.703 137.713 Q 662.703 143.324 666.422 146.716 L 666.422 146.716 L 666.422 146.716 Q 670.14 150.109 676.925 150.109 Z  M 749.992 158.59 L 740.467 158.59 L 716.068 91.916 L 727.55 91.916 L 743.338 136.409 L 743.338 136.409 Q 745.034 141.367 745.425 142.933 L 745.425 142.933 L 745.425 142.933 Q 745.817 141.367 747.513 136.409 L 747.513 136.409 L 763.04 91.916 L 774.391 91.916 L 749.992 158.59 L 749.992 158.59 Z  M 800.226 77.759 L 800.226 77.759 L 800.226 77.759 Q 798.138 79.782 795.137 79.782 L 795.137 79.782 L 795.137 79.782 Q 792.136 79.782 790.114 77.694 L 790.114 77.694 L 790.114 77.694 Q 788.091 75.606 788.091 72.736 L 788.091 72.736 L 788.091 72.736 Q 788.091 69.735 790.179 67.582 L 790.179 67.582 L 790.179 67.582 Q 792.267 65.429 795.137 65.429 L 795.137 65.429 L 795.137 65.429 Q 798.138 65.429 800.226 67.582 L 800.226 67.582 L 800.226 67.582 Q 802.313 69.735 802.313 72.736 L 802.313 72.736 L 802.313 72.736 Q 802.313 75.737 800.226 77.759 Z  M 800.878 158.59 L 789.527 158.59 L 789.527 91.916 L 800.878 91.916 L 800.878 158.59 L 800.878 158.59 Z  M 843.022 185.598 L 843.022 185.598 L 837.542 176.726 L 837.542 176.726 Q 852.025 175.943 857.57 171.703 L 857.57 171.703 L 857.57 171.703 Q 863.115 167.462 863.115 160.155 L 863.115 160.155 L 863.115 152.066 L 863.115 152.066 Q 857.244 160.155 845.893 160.155 L 845.893 160.155 L 845.893 160.155 Q 834.15 160.155 826.386 151.022 L 826.386 151.022 L 826.386 151.022 Q 818.623 141.889 818.623 125.188 L 818.623 125.188 L 818.623 125.188 Q 818.623 109.009 826.256 99.679 L 826.256 99.679 L 826.256 99.679 Q 833.889 90.35 846.284 90.35 L 846.284 90.35 L 846.284 90.35 Q 856.722 90.35 863.115 97.396 L 863.115 97.396 L 863.115 91.916 L 874.467 91.916 L 874.467 155.85 L 874.467 155.85 Q 874.467 171.116 866.312 177.9 L 866.312 177.9 L 866.312 177.9 Q 858.157 184.685 843.022 185.598 Z  M 848.241 149.587 L 848.241 149.587 L 848.241 149.587 Q 852.416 149.587 856.526 147.043 L 856.526 147.043 L 856.526 147.043 Q 860.636 144.498 863.115 140.193 L 863.115 140.193 L 863.115 109.661 L 863.115 109.661 Q 860.767 105.747 856.461 103.268 L 856.461 103.268 L 856.461 103.268 Q 852.155 100.789 848.241 100.789 L 848.241 100.789 L 848.241 100.789 Q 839.369 100.789 834.737 107.117 L 834.737 107.117 L 834.737 107.117 Q 830.105 113.445 830.105 125.188 L 830.105 125.188 L 830.105 125.188 Q 830.105 136.539 835.128 143.063 L 835.128 143.063 L 835.128 143.063 Q 840.152 149.587 848.241 149.587 Z  M 944.925 158.59 L 934.225 158.59 L 934.225 152.457 L 934.225 152.457 Q 926.005 160.155 915.306 160.155 L 915.306 160.155 L 915.306 160.155 Q 904.738 160.155 898.409 154.349 L 898.409 154.349 L 898.409 154.349 Q 892.081 148.543 892.081 137.713 L 892.081 137.713 L 892.081 137.713 Q 892.081 126.884 899.258 121.273 L 899.258 121.273 L 899.258 121.273 Q 906.434 115.663 917.002 115.663 L 917.002 115.663 L 917.002 115.663 Q 926.658 115.663 934.225 119.969 L 934.225 119.969 L 934.225 115.271 L 934.225 115.271 Q 934.225 106.921 930.507 103.594 L 930.507 103.594 L 930.507 103.594 Q 926.788 100.267 919.742 100.267 L 919.742 100.267 L 919.742 100.267 Q 909.696 100.267 900.301 106.921 L 900.301 106.921 L 897.039 97.396 L 897.039 97.396 Q 907.739 90.35 921.178 90.35 L 921.178 90.35 L 921.178 90.35 Q 944.925 90.35 944.925 114.358 L 944.925 114.358 L 944.925 158.59 L 944.925 158.59 Z  M 917.002 150.109 L 917.002 150.109 L 917.002 150.109 Q 926.788 150.109 934.225 141.367 L 934.225 141.367 L 934.225 129.885 L 934.225 129.885 Q 927.049 125.449 918.568 125.449 L 918.568 125.449 L 918.568 125.449 Q 911.653 125.449 907.217 128.58 L 907.217 128.58 L 907.217 128.58 Q 902.78 131.712 902.78 137.713 L 902.78 137.713 L 902.78 137.713 Q 902.78 143.324 906.499 146.716 L 906.499 146.716 L 906.499 146.716 Q 910.218 150.109 917.002 150.109 Z  M 982.632 160.155 L 982.632 160.155 L 982.632 160.155 Q 968.541 160.155 968.541 144.237 L 968.541 144.237 L 968.541 101.832 L 957.711 101.832 L 957.711 91.916 L 968.541 91.916 L 968.541 69.865 L 979.892 64.385 L 979.892 91.916 L 996.332 91.916 L 996.332 101.832 L 979.892 101.832 L 979.892 140.453 L 979.892 140.453 Q 979.892 144.89 981.328 147.238 L 981.328 147.238 L 981.328 147.238 Q 982.763 149.587 986.808 149.587 L 986.808 149.587 L 986.808 149.587 Q 991.244 149.587 996.724 146.064 L 996.724 146.064 L 995.419 157.155 L 995.419 157.155 Q 989.678 160.155 982.632 160.155 Z  M 1059.222 150.826 L 1059.222 150.826 L 1059.222 150.826 Q 1051.263 160.155 1037.694 160.155 L 1037.694 160.155 L 1037.694 160.155 Q 1024.124 160.155 1016.165 150.892 L 1016.165 150.892 L 1016.165 150.892 Q 1008.206 141.628 1008.206 125.318 L 1008.206 125.318 L 1008.206 125.318 Q 1008.206 109.009 1016.165 99.679 L 1016.165 99.679 L 1016.165 99.679 Q 1024.124 90.35 1037.694 90.35 L 1037.694 90.35 L 1037.694 90.35 Q 1051.263 90.35 1059.222 99.614 L 1059.222 99.614 L 1059.222 99.614 Q 1067.181 108.878 1067.181 125.188 L 1067.181 125.188 L 1067.181 125.188 Q 1067.181 141.497 1059.222 150.826 Z  M 1024.45 143.128 L 1024.45 143.128 L 1024.45 143.128 Q 1029.213 149.587 1037.694 149.587 L 1037.694 149.587 L 1037.694 149.587 Q 1046.175 149.587 1050.937 143.128 L 1050.937 143.128 L 1050.937 143.128 Q 1055.699 136.67 1055.699 125.188 L 1055.699 125.188 L 1055.699 125.188 Q 1055.699 113.836 1050.937 107.312 L 1050.937 107.312 L 1050.937 107.312 Q 1046.175 100.789 1037.694 100.789 L 1037.694 100.789 L 1037.694 100.789 Q 1029.213 100.789 1024.45 107.247 L 1024.45 107.247 L 1024.45 107.247 Q 1019.688 113.706 1019.688 125.318 L 1019.688 125.318 L 1019.688 125.318 Q 1019.688 136.67 1024.45 143.128 Z  M 1096.278 158.59 L 1084.926 158.59 L 1084.926 91.916 L 1096.278 91.916 L 1096.278 100.658 L 1096.278 100.658 Q 1100.975 90.35 1112.065 90.35 L 1112.065 90.35 L 1112.065 90.35 Q 1118.328 90.35 1122.373 93.743 L 1122.373 93.743 L 1120.677 104.442 L 1120.677 104.442 Q 1116.502 101.571 1111.152 101.571 L 1111.152 101.571 L 1111.152 101.571 Q 1105.281 101.571 1100.779 106.138 L 1100.779 106.138 L 1100.779 106.138 Q 1096.278 110.705 1096.278 121.012 L 1096.278 121.012 L 1096.278 158.59 L 1096.278 158.59 Z " fill="var(--c)" />
            <path d=" M 940.777 294.036 L 940.777 294.036 L 940.777 294.036 Q 938.755 296.058 935.754 296.058 L 935.754 296.058 L 935.754 296.058 Q 932.753 296.058 930.665 294.036 L 930.665 294.036 L 930.665 294.036 Q 928.578 292.013 928.578 289.012 L 928.578 289.012 L 928.578 289.012 Q 928.578 286.011 930.665 283.858 L 930.665 283.858 L 930.665 283.858 Q 932.753 281.706 935.754 281.706 L 935.754 281.706 L 935.754 281.706 Q 938.755 281.706 940.777 283.858 L 940.777 283.858 L 940.777 283.858 Q 942.8 286.011 942.8 289.012 L 942.8 289.012 L 942.8 289.012 Q 942.8 292.013 940.777 294.036 Z  M 918.27 402.788 L 918.27 402.788 L 912.92 394.177 L 912.92 394.177 Q 922.576 392.611 926.294 389.218 L 926.294 389.218 L 926.294 389.218 Q 930.013 385.826 930.013 379.563 L 930.013 379.563 L 930.013 308.192 L 941.364 308.192 L 941.364 375.388 L 941.364 375.388 Q 941.364 387.522 936.406 393.394 L 936.406 393.394 L 936.406 393.394 Q 930.143 401.092 918.27 402.788 Z  M 982.726 376.432 L 982.726 376.432 L 982.726 376.432 Q 975.549 376.432 969.091 373.366 L 969.091 373.366 L 969.091 373.366 Q 962.632 370.299 958.587 365.211 L 958.587 365.211 L 966.677 358.295 L 966.677 358.295 Q 974.114 366.255 982.987 366.255 L 982.987 366.255 L 982.987 366.255 Q 988.597 366.255 991.989 364.102 L 991.989 364.102 L 991.989 364.102 Q 995.382 361.949 995.382 357.774 L 995.382 357.774 L 995.382 357.774 Q 995.382 354.642 992.903 352.098 L 992.903 352.098 L 992.903 352.098 Q 990.424 349.554 987.814 348.314 L 987.814 348.314 L 987.814 348.314 Q 985.205 347.074 980.116 345.117 L 980.116 345.117 L 980.116 345.117 Q 969.939 341.333 964.72 336.636 L 964.72 336.636 L 964.72 336.636 Q 959.501 331.939 959.501 324.241 L 959.501 324.241 L 959.501 324.241 Q 959.501 316.151 965.829 311.389 L 965.829 311.389 L 965.829 311.389 Q 972.157 306.627 981.943 306.627 L 981.943 306.627 L 981.943 306.627 Q 995.904 306.627 1004.385 316.673 L 1004.385 316.673 L 996.556 323.197 L 996.556 323.197 Q 990.424 316.804 981.812 316.804 L 981.812 316.804 L 981.812 316.804 Q 976.724 316.804 973.723 318.761 L 973.723 318.761 L 973.723 318.761 Q 970.722 320.718 970.722 324.241 L 970.722 324.241 L 970.722 324.241 Q 970.722 326.198 971.7 327.829 L 971.7 327.829 L 971.7 327.829 Q 972.679 329.46 975.223 330.895 L 975.223 330.895 L 975.223 330.895 Q 977.767 332.331 979.268 333.048 L 979.268 333.048 L 979.268 333.048 Q 980.768 333.766 984.813 335.332 L 984.813 335.332 L 984.813 335.332 Q 995.382 339.115 1000.927 343.943 L 1000.927 343.943 L 1000.927 343.943 Q 1006.472 348.771 1006.472 357.513 L 1006.472 357.513 L 1006.472 357.513 Q 1006.472 366.385 1000.079 371.408 L 1000.079 371.408 L 1000.079 371.408 Q 993.686 376.432 982.726 376.432 Z  M 597.819 294.036 L 597.819 294.036 L 597.819 294.036 Q 595.731 296.058 592.73 296.058 L 592.73 296.058 L 592.73 296.058 Q 589.729 296.058 587.707 293.97 L 587.707 293.97 L 587.707 293.97 Q 585.684 291.883 585.684 289.012 L 585.684 289.012 L 585.684 289.012 Q 585.684 286.011 587.772 283.858 L 587.772 283.858 L 587.772 283.858 Q 589.86 281.706 592.73 281.706 L 592.73 281.706 L 592.73 281.706 Q 595.731 281.706 597.819 283.858 L 597.819 283.858 L 597.819 283.858 Q 599.906 286.011 599.906 289.012 L 599.906 289.012 L 599.906 289.012 Q 599.906 292.013 597.819 294.036 Z  M 598.471 374.866 L 587.12 374.866 L 587.12 308.192 L 598.471 308.192 L 598.471 374.866 L 598.471 374.866 Z  M 672.582 374.866 L 661.231 374.866 L 661.231 334.549 L 661.231 334.549 Q 661.231 325.546 657.381 321.305 L 657.381 321.305 L 657.381 321.305 Q 653.532 317.065 646.878 317.065 L 646.878 317.065 L 646.878 317.065 Q 631.482 317.065 631.482 334.288 L 631.482 334.288 L 631.482 374.866 L 620.13 374.866 L 620.13 308.192 L 631.482 308.192 L 631.482 314.977 L 631.482 314.977 Q 637.614 306.627 648.705 306.627 L 648.705 306.627 L 648.705 306.627 Q 660.448 306.627 666.515 313.738 L 666.515 313.738 L 666.515 313.738 Q 672.582 320.849 672.582 336.506 L 672.582 336.506 L 672.582 374.866 L 672.582 374.866 Z  M 717.205 376.432 L 717.205 376.432 L 717.205 376.432 Q 704.549 376.432 697.112 367.037 L 697.112 367.037 L 697.112 367.037 Q 689.674 357.643 689.674 341.464 L 689.674 341.464 L 689.674 341.464 Q 689.674 325.154 697.177 315.89 L 697.177 315.89 L 697.177 315.89 Q 704.679 306.627 717.205 306.627 L 717.205 306.627 L 717.205 306.627 Q 726.991 306.627 734.037 312.89 L 734.037 312.89 L 734.037 286.011 L 745.388 280.662 L 745.388 374.866 L 734.037 374.866 L 734.037 369.647 L 734.037 369.647 Q 727.513 376.432 717.205 376.432 Z  M 718.771 365.863 L 718.771 365.863 L 718.771 365.863 Q 728.687 365.863 734.037 356.86 L 734.037 356.86 L 734.037 325.546 L 734.037 325.546 Q 728.687 317.065 718.771 317.065 L 718.771 317.065 L 718.771 317.065 Q 710.29 317.065 705.723 323.393 L 705.723 323.393 L 705.723 323.393 Q 701.156 329.721 701.156 341.464 L 701.156 341.464 L 701.156 341.464 Q 701.156 352.033 705.919 358.948 L 705.919 358.948 L 705.919 358.948 Q 710.681 365.863 718.771 365.863 Z  M 792.621 376.432 L 792.621 376.432 L 792.621 376.432 Q 779.051 376.432 771.027 366.711 L 771.027 366.711 L 771.027 366.711 Q 763.002 356.991 763.002 341.464 L 763.002 341.464 L 763.002 341.464 Q 763.002 325.154 771.092 315.89 L 771.092 315.89 L 771.092 315.89 Q 779.182 306.627 792.621 306.627 L 792.621 306.627 L 792.621 306.627 Q 804.625 306.627 812.388 314.651 L 812.388 314.651 L 812.388 314.651 Q 820.151 322.675 820.151 338.332 L 820.151 338.332 L 820.151 338.332 Q 820.151 341.986 819.76 345.9 L 819.76 345.9 L 774.615 345.9 L 774.615 345.9 Q 775.267 355.034 780.291 360.579 L 780.291 360.579 L 780.291 360.579 Q 785.314 366.124 792.882 366.124 L 792.882 366.124 L 792.882 366.124 Q 801.232 366.124 807.234 360.122 L 807.234 360.122 L 814.149 367.82 L 814.149 367.82 Q 805.538 376.432 792.621 376.432 Z  M 774.484 336.245 L 774.484 336.245 L 808.669 336.245 L 808.669 336.245 Q 808.539 325.937 803.777 321.305 L 803.777 321.305 L 803.777 321.305 Q 799.014 316.673 792.621 316.673 L 792.621 316.673 L 792.621 316.673 Q 784.923 316.673 779.964 321.566 L 779.964 321.566 L 779.964 321.566 Q 775.006 326.459 774.484 336.245 Z  M 839.984 374.866 L 827.328 374.866 L 849.639 340.159 L 829.024 308.192 L 841.68 308.192 L 852.249 324.371 L 852.249 324.371 Q 855.25 329.199 856.033 330.765 L 856.033 330.765 L 856.033 330.765 Q 859.164 325.546 859.947 324.371 L 859.947 324.371 L 870.385 308.192 L 883.172 308.192 L 862.426 340.159 L 884.868 374.866 L 872.081 374.866 L 859.816 355.947 L 859.816 355.947 Q 858.381 353.729 856.033 349.554 L 856.033 349.554 L 856.033 349.554 Q 854.858 351.902 852.249 355.947 L 852.249 355.947 L 839.984 374.866 L 839.984 374.866 Z  M 910.768 373.887 L 910.768 373.887 L 910.768 373.887 Q 908.093 376.562 904.309 376.562 L 904.309 376.562 L 904.309 376.562 Q 900.525 376.562 897.916 373.887 L 897.916 373.887 L 897.916 373.887 Q 895.306 371.213 895.306 367.69 L 895.306 367.69 L 895.306 367.69 Q 895.306 364.036 897.916 361.362 L 897.916 361.362 L 897.916 361.362 Q 900.525 358.687 904.309 358.687 L 904.309 358.687 L 904.309 358.687 Q 908.093 358.687 910.768 361.427 L 910.768 361.427 L 910.768 361.427 Q 913.442 364.167 913.442 367.69 L 913.442 367.69 L 913.442 367.69 Q 913.442 371.213 910.768 373.887 Z " fill="var(--c)" />
            <path d=" M 597.232 571.505 L 597.232 571.505 L 597.232 571.505 Q 594.557 574.179 590.773 574.179 L 590.773 574.179 L 590.773 574.179 Q 586.989 574.179 584.38 571.505 L 584.38 571.505 L 584.38 571.505 Q 581.77 568.83 581.77 565.307 L 581.77 565.307 L 581.77 565.307 Q 581.77 561.654 584.38 558.979 L 584.38 558.979 L 584.38 558.979 Q 586.989 556.304 590.773 556.304 L 590.773 556.304 L 590.773 556.304 Q 594.557 556.304 597.232 559.044 L 597.232 559.044 L 597.232 559.044 Q 599.906 561.784 599.906 565.307 L 599.906 565.307 L 599.906 565.307 Q 599.906 568.83 597.232 571.505 Z  M 625.284 571.505 L 625.284 571.505 L 625.284 571.505 Q 622.609 574.179 618.826 574.179 L 618.826 574.179 L 618.826 574.179 Q 615.042 574.179 612.432 571.505 L 612.432 571.505 L 612.432 571.505 Q 609.823 568.83 609.823 565.307 L 609.823 565.307 L 609.823 565.307 Q 609.823 561.654 612.432 558.979 L 612.432 558.979 L 612.432 558.979 Q 615.042 556.304 618.826 556.304 L 618.826 556.304 L 618.826 556.304 Q 622.609 556.304 625.284 559.044 L 625.284 559.044 L 625.284 559.044 Q 627.959 561.784 627.959 565.307 L 627.959 565.307 L 627.959 565.307 Q 627.959 568.83 625.284 571.505 Z " fill="var(--c)" />
        </g>
    </g>
</svg>